HIERARCHY
ROOT Hips
{
    OFFSET   0.000000   0.000000   0.000000
    CHANNELS 6 Xposition Yposition Zposition Zrotation Xrotation Yrotation
    JOINT Chest
    {
        OFFSET   0.000000   8.007230   0.000000
        CHANNELS 3 Zrotation Xrotation Yrotation
        JOINT Chest2
        {
            OFFSET   0.000000  22.077100   0.000000
            CHANNELS 3 Zrotation Xrotation Yrotation
            JOINT Neck
            {
                OFFSET   0.000000  23.254800   0.000000
                CHANNELS 3 Zrotation Xrotation Yrotation
                JOINT Head
                {
                    OFFSET   0.000010  14.370000   1.956600
                    CHANNELS 3 Zrotation Xrotation Yrotation
                    End Site
                    {
                        OFFSET   0.000000  19.566000   0.000000
                    }
                }
            }
            JOINT LeftCollar
            {
                OFFSET   3.911900  19.017000  -0.467062
                CHANNELS 3 Zrotation Xrotation Yrotation
                JOINT LeftShoulder
                {
                    OFFSET  10.383700   0.000000   0.000000
                    CHANNELS 3 Zrotation Xrotation Yrotation
                    JOINT LeftElbow
                    {
                        OFFSET  26.662100   0.001193   0.000835
                        CHANNELS 3 Zrotation Xrotation Yrotation
                        JOINT LeftWrist
                        {
                            OFFSET  28.869000  -0.000058  -0.000075
                            CHANNELS 3 Zrotation Xrotation Yrotation
                            JOINT LeftFinger0
                            {
                                OFFSET   2.044660  -2.323460   3.252850
                                CHANNELS 3 Zrotation Xrotation Yrotation
                                JOINT LeftFinger01
                                {
                                    OFFSET   3.088130   0.000000   0.000000
                                    CHANNELS 3 Zrotation Xrotation Yrotation
                                    JOINT LeftFinger02
                                    {
                                        OFFSET   2.639450   0.000000   0.000000
                                        CHANNELS 3 Zrotation Xrotation Yrotation
                                        End Site
                                        {
                                            OFFSET   2.582190   0.000000   0.000000
                                        }
                                    }
                                }
                            }
                            JOINT LeftFinger1
                            {
                                OFFSET   8.364480   0.000000   3.252850
                                CHANNELS 3 Zrotation Xrotation Yrotation
                                JOINT LeftFinger11
                                {
                                    OFFSET   4.646920   0.000000   0.000000
                                    CHANNELS 3 Zrotation Xrotation Yrotation
                                    JOINT LeftFinger12
                                    {
                                        OFFSET   2.323460   0.000000   0.000000
                                        CHANNELS 3 Zrotation Xrotation Yrotation
                                        End Site
                                        {
                                            OFFSET   2.273050   0.000000   0.000000
                                        }
                                    }
                                }
                            }
                            JOINT LeftFinger2
                            {
                                OFFSET   8.364490   0.000016   1.078090
                                CHANNELS 3 Zrotation Xrotation Yrotation
                                JOINT LeftFinger21
                                {
                                    OFFSET   5.111620   0.000000   0.000000
                                    CHANNELS 3 Zrotation Xrotation Yrotation
                                    JOINT LeftFinger22
                                    {
                                        OFFSET   2.788150   0.000012   0.000000
                                        CHANNELS 3 Zrotation Xrotation Yrotation
                                        End Site
                                        {
                                            OFFSET   2.727660   0.000000   0.000000
                                        }
                                    }
                                }
                            }
                            JOINT LeftFinger3
                            {
                                OFFSET   7.899780   0.000014  -1.078090
                                CHANNELS 3 Zrotation Xrotation Yrotation
                                JOINT LeftFinger31
                                {
                                    OFFSET   4.646930   0.000000   0.000000
                                    CHANNELS 3 Zrotation Xrotation Yrotation
                                    JOINT LeftFinger32
                                    {
                                        OFFSET   2.323470   0.000000   0.000000
                                        CHANNELS 3 Zrotation Xrotation Yrotation
                                        End Site
                                        {
                                            OFFSET   2.273050   0.000000   0.000000
                                        }
                                    }
                                }
                            }
                            JOINT LeftFinger4
                            {
                                OFFSET   7.435090   0.000000  -3.252850
                                CHANNELS 3 Zrotation Xrotation Yrotation
                                JOINT LeftFinger41
                                {
                                    OFFSET   3.717550   0.000000   0.000000
                                    CHANNELS 3 Zrotation Xrotation Yrotation
                                    JOINT LeftFinger42
                                    {
                                        OFFSET   1.858770   0.000000   0.000000
                                        CHANNELS 3 Zrotation Xrotation Yrotation
                                        End Site
                                        {
                                            OFFSET   1.818440   0.000000   0.000000
                                        }
                                    }
                                }
                            }
                        }
                    }
                }
            }
            JOINT RightCollar
            {
                OFFSET  -3.911900  19.017000  -0.467063
                CHANNELS 3 Zrotation Xrotation Yrotation
                JOINT RightShoulder
                {
                    OFFSET -10.383700   0.000023   0.000000
                    CHANNELS 3 Zrotation Xrotation Yrotation
                    JOINT RightElbow
                    {
                        OFFSET -26.662100   0.001246   0.001011
                        CHANNELS 3 Zrotation Xrotation Yrotation
                        JOINT RightWrist
                        {
                            OFFSET -28.869000  -0.000026  -0.000078
                            CHANNELS 3 Zrotation Xrotation Yrotation
                            JOINT RightFinger0
                            {
                                OFFSET  -2.044660  -2.323490   3.252850
                                CHANNELS 3 Zrotation Xrotation Yrotation
                                JOINT RightFinger01
                                {
                                    OFFSET  -3.088130   0.000000   0.000000
                                    CHANNELS 3 Zrotation Xrotation Yrotation
                                    JOINT RightFinger02
                                    {
                                        OFFSET  -2.639460   0.000000   0.000000
                                        CHANNELS 3 Zrotation Xrotation Yrotation
                                        End Site
                                        {
                                            OFFSET  -2.582190   0.000000   0.000000
                                        }
                                    }
                                }
                            }
                            JOINT RightFinger1
                            {
                                OFFSET  -8.364480   0.000000   3.252850
                                CHANNELS 3 Zrotation Xrotation Yrotation
                                JOINT RightFinger11
                                {
                                    OFFSET  -4.646920   0.000000   0.000000
                                    CHANNELS 3 Zrotation Xrotation Yrotation
                                    JOINT RightFinger12
                                    {
                                        OFFSET  -2.323470   0.000000   0.000000
                                        CHANNELS 3 Zrotation Xrotation Yrotation
                                        End Site
                                        {
                                            OFFSET  -2.273050   0.000000   0.000000
                                        }
                                    }
                                }
                            }
                            JOINT RightFinger2
                            {
                                OFFSET  -8.364480   0.000000   1.078090
                                CHANNELS 3 Zrotation Xrotation Yrotation
                                JOINT RightFinger21
                                {
                                    OFFSET  -5.111620   0.000000   0.000000
                                    CHANNELS 3 Zrotation Xrotation Yrotation
                                    JOINT RightFinger22
                                    {
                                        OFFSET  -2.788160   0.000000   0.000000
                                        CHANNELS 3 Zrotation Xrotation Yrotation
                                        End Site
                                        {
                                            OFFSET  -2.727660   0.000000   0.000000
                                        }
                                    }
                                }
                            }
                            JOINT RightFinger3
                            {
                                OFFSET  -7.899780   0.000000  -1.078090
                                CHANNELS 3 Zrotation Xrotation Yrotation
                                JOINT RightFinger31
                                {
                                    OFFSET  -4.646930   0.000000   0.000000
                                    CHANNELS 3 Zrotation Xrotation Yrotation
                                    JOINT RightFinger32
                                    {
                                        OFFSET  -2.323470   0.000000   0.000000
                                        CHANNELS 3 Zrotation Xrotation Yrotation
                                        End Site
                                        {
                                            OFFSET  -2.273050   0.000000   0.000000
                                        }
                                    }
                                }
                            }
                            JOINT RightFinger4
                            {
                                OFFSET  -7.435090   0.000000  -3.252850
                                CHANNELS 3 Zrotation Xrotation Yrotation
                                JOINT RightFinger41
                                {
                                    OFFSET  -3.717550   0.000000   0.000000
                                    CHANNELS 3 Zrotation Xrotation Yrotation
                                    JOINT RightFinger42
                                    {
                                        OFFSET  -1.858760   0.000000   0.000000
                                        CHANNELS 3 Zrotation Xrotation Yrotation
                                        End Site
                                        {
                                            OFFSET  -1.818440   0.000000   0.000000
                                        }
                                    }
                                }
                            }
                        }
                    }
                }
            }
        }
    }
    JOINT LeftHip
    {
        OFFSET   9.783010   0.000000   0.000000
        CHANNELS 3 Zrotation Xrotation Yrotation
        JOINT LeftKnee
        {
            OFFSET   0.000073 -41.789100   0.001749
            CHANNELS 3 Zrotation Xrotation Yrotation
            JOINT LeftAnkle
            {
                OFFSET   0.000111 -41.133200  -0.000179
                CHANNELS 3 Zrotation Xrotation Yrotation
                JOINT LeftToe
                {
                    OFFSET   0.000000  -6.358960  14.674500
                    CHANNELS 3 Zrotation Xrotation Yrotation
                    End Site
                    {
                        OFFSET   0.000000   0.000000   3.913200
                    }
                }
            }
        }
    }
    JOINT RightHip
    {
        OFFSET  -9.783010   0.000000   0.000000
        CHANNELS 3 Zrotation Xrotation Yrotation
        JOINT RightKnee
        {
            OFFSET   0.000424 -41.789200   0.005205
            CHANNELS 3 Zrotation Xrotation Yrotation
            JOINT RightAnkle
            {
                OFFSET   0.000000 -41.133200  -0.000155
                CHANNELS 3 Zrotation Xrotation Yrotation
                JOINT RightToe
                {
                    OFFSET   0.000000  -6.358960  14.674500
                    CHANNELS 3 Zrotation Xrotation Yrotation
                    End Site
                    {
                        OFFSET   0.000000   0.000000   3.913200
                    }
                }
            }
        }
    }
}
MOTION
Frames: 4
Frame Time:   0.016667
  0.196704  89.574600  -1.771310  -2.590220  -5.751010  -4.297410   0.645546   2.923810  -0.302254   1.309110   5.843990  -0.638790   1.133240   1.821200  -0.042632   1.866970   3.687920   1.813010  -3.731620   0.432749   1.592950 -76.238300  14.283800   0.822804  -1.683150  -2.274340 -15.444500  16.449200 -14.448800   5.406690  48.741700  39.338800 -78.656600 -21.635300   0.002446   0.001082  -5.815990   0.000836   0.006156 -29.307100   4.058360  -7.172560 -24.187100  -0.003034   0.012425 -16.931000  -0.004167   0.003758 -28.326800  -0.590750   1.095600 -34.564600   0.003441   0.011538 -23.020000  -0.011476  -0.002333 -28.081300  -0.586042   1.098130 -32.637600   0.003729  -0.004587 -21.736600   0.003608   0.003109 -30.328900  -0.628245   1.074550 -45.502400   0.004889   0.004937 -30.304600   0.003948   0.000714   6.975020   0.407195   3.269650  69.666100  12.845100  -6.698650   1.314250  -8.881560   9.645930 -10.466500  -6.063560  -3.420850 -44.249000  36.272000  71.201100  25.513000   0.008054  -0.003757   7.756480   0.006851  -0.003194  26.406900   5.994710  11.877500  22.116500   0.011361   0.004610  15.481500   0.000394  -0.003934  27.490700   3.881280   7.411480  30.460300  -0.000921  -0.002031  20.286500   0.001042  -0.007518  25.865400   3.644100   7.468730  26.103500  -0.003985   0.003756  17.384900  -0.006099   0.003131  33.282600   0.624177   0.944706  49.931800  -0.006983   0.014379  33.254600   0.003606   0.003627   0.599293   7.965390   1.246650   1.116960   0.317678   8.971750  -0.718444  -3.341020   3.820810  -0.000000   0.000000  -0.000000   3.938400   5.292050  -3.156740  -1.243680   3.198030  -8.884920  -1.370300  -3.428350   0.165491  -0.000000   0.000000   0.000000
  0.206284  89.574600  -1.785630  -2.590470  -5.766500  -4.288380   0.645646   2.948850  -0.299059   1.309320   5.894100  -0.632678   1.133260   1.852920  -0.042578   1.866240   3.752240   1.820500  -3.731420   0.427438   1.593080 -76.229400  14.337100   0.816326  -1.705050  -2.312200 -15.468000  16.437700 -14.436000   5.396050  48.767600  39.361400 -78.669000 -21.635300   0.002451   0.001063  -5.816380   0.000836   0.006158 -29.351200   4.058260  -7.162530 -24.222900  -0.003032   0.012429 -16.956000  -0.004170   0.003758 -28.327000  -0.590752   1.095600 -34.549800   0.003441   0.011540 -23.010200  -0.011476  -0.002332 -28.081500  -0.586042   1.098130 -32.625100   0.003730  -0.004587 -21.728300   0.003608   0.003108 -30.321300  -0.628247   1.074550 -45.491000   0.004891   0.004937 -30.297000   0.003948   0.000714   6.986940   0.343784   3.272200  69.638100  12.852700  -6.582990   1.304280  -8.875000   9.603470 -10.460600  -6.013870  -3.448760 -44.269300  36.311400  71.328200  25.487900   0.008044  -0.003757   7.743910   0.006853  -0.003192  26.425400   6.016040  11.910200  22.132900   0.011365   0.004615  15.492900   0.000398  -0.003929  27.493100   3.913540   7.471450  30.501000  -0.000932  -0.002027  20.313600   0.001045  -0.007515  25.883200   3.674230   7.523660  26.125100  -0.003970   0.003747  17.399300  -0.006097   0.003126  33.301600   0.624276   0.937868  49.960200  -0.006979   0.014378  33.273500   0.003610   0.003631   0.598204   8.018270   1.253970   1.112510   0.259468   8.979310  -0.738840  -3.301880   3.796810  -0.000000   0.000000  -0.000000   3.925060   5.299650  -3.165780  -1.236330   3.192660  -8.904940  -1.365400  -3.415410   0.185902   0.000000   0.000000   0.000000
  0.221791  89.574400  -1.809770  -2.590620  -5.795420  -4.268650   0.645847   2.992330  -0.294223   1.309780   5.981110  -0.623505   1.133300   1.910000  -0.042490   1.863590   3.867980   1.831850  -3.731130   0.418611   1.594070 -76.210300  14.454400   0.793618  -1.742550  -2.387660 -15.500500  16.419900 -14.416800   5.380010  48.793500  39.383900 -78.681500 -21.635300   0.002459   0.001043  -5.816760   0.000840   0.006166 -29.416200   4.058190  -7.148950 -24.275500  -0.003030   0.012437 -16.992800  -0.004174   0.003759 -28.327300  -0.590753   1.095600 -34.526400   0.003442   0.011546 -22.994600  -0.011482  -0.002332 -28.081700  -0.586043   1.098130 -32.606100   0.003732  -0.004589 -21.715700   0.003608   0.003105 -30.309400  -0.628248   1.074550 -45.473000   0.004895   0.004939 -30.285000   0.003948   0.000715   7.014730   0.253509   3.290200  69.579800  12.890100  -6.393760   1.281460  -8.868440   9.561020 -10.439600  -5.923580  -3.476410 -44.320700  36.375300  71.535300  25.424100   0.008025  -0.003756   7.712010   0.006856  -0.003180  26.433700   6.061110  11.990600  22.149200   0.011374   0.004626  15.504400   0.000411  -0.003920  27.493300   3.972770   7.582960  30.541700  -0.000962  -0.002016  20.340700   0.001053  -0.007506  25.905700   3.730430   7.629650  26.154900  -0.003931   0.003726  17.419100  -0.006091   0.003113  33.320500   0.624414   0.931031  49.988600  -0.006967   0.014376  33.292400   0.003621   0.003643   0.597957   8.071140   1.266980   1.108060   0.201257   8.991830  -0.779482  -3.248450   3.750170  -0.000000   0.000000  -0.000000   3.905880   5.315320  -3.185880  -1.225910   3.183070  -8.945880  -1.356820  -3.394540   0.227688  -0.000000   0.000000  -0.000000
  0.233340  89.574400  -1.829870  -2.589340  -5.824920  -4.247120   0.646175   3.031050  -0.291967   1.310590   6.058560  -0.619487   1.127170   1.963580  -0.042402   1.855530   3.976720   1.839680  -3.731100   0.412005   1.607510 -76.184500  14.606900   0.753109  -1.775070  -2.472050 -15.512800  16.407500 -14.404000   5.372470  48.799100  39.382700 -78.679100 -21.631300   0.002464   0.001043  -5.815140   0.000849   0.006183 -29.450600   4.058690  -7.144740 -24.303500  -0.003032   0.012448 -17.012400  -0.004176   0.003761 -28.327300  -0.587883   1.090340 -34.510700   0.003443   0.011558 -22.984100  -0.011495  -0.002332 -28.081800  -0.583200   1.092850 -32.595100   0.003735  -0.004593 -21.708400   0.003609   0.003100 -30.301600  -0.625110   1.069440 -45.461300   0.004895   0.004945 -30.277200   0.003948   0.000716   7.056550   0.209460   3.359660  69.484700  12.994600  -6.250120   1.251120  -8.873120   9.602780 -10.388200  -5.825760  -3.468570 -44.422200  36.440100  71.724100  25.315100   0.008010  -0.003737   7.657530   0.006851  -0.003149  26.405200   6.123360  12.122600  22.139900   0.011384   0.004637  15.497900   0.000433  -0.003906  27.484000   4.037150   7.707240  30.534300  -0.001007  -0.001995  20.335800   0.001066  -0.007493  25.904600   3.792280   7.755030  26.162000  -0.003873   0.003694  17.423900  -0.006085   0.003091  33.309700   0.624472   0.934894  49.972400  -0.006949   0.014376  33.281600   0.003638   0.003660   0.601169   8.048090   1.280360   1.100820   0.270812   9.002290  -0.827350  -3.238690   3.700700  -0.000000   0.000000   0.000000   3.896820   5.333390  -3.209140  -1.221070   3.174760  -8.998700  -1.348650  -3.379140   0.282516  -0.000000   0.000000  -0.000000
